<svg width="120" height="120" viewBox="0 0 120 120" fill="none" xmlns="http://www.w3.org/2000/svg">
<g clip-path="url(#clip0_24031_75049)">
<path d="M0 60C0 75.913 6.32141 91.1742 17.5736 102.426C28.8258 113.679 44.087 120 60 120C75.913 120 91.1742 113.679 102.426 102.426C113.679 91.1742 120 75.913 120 60C120 44.087 113.679 28.8258 102.426 17.5736C91.1742 6.32141 75.913 0 60 0C44.087 0 28.8258 6.32141 17.5736 17.5736C6.32141 28.8258 0 44.087 0 60Z" fill="#646CFF41"/>
<path d="M96 98V58.7493H60L24 58.7493V98L60 98H96Z" fill="white"/>
<path d="M73 91C73 82.1634 80.1634 75 89 75C91.5103 75 93.8856 75.5781 96 76.6085V98H74.6085C73.5781 95.8856 73 93.5103 73 91Z" fill="#F4F6FD"/>
<path d="M96 98V58.7493H60L24 58.7493V98L60 98H96Z" stroke="#04153C" stroke-width="1.4" stroke-linejoin="round"/>
<path d="M49 72.8672C49 73.3624 49.1967 73.8373 49.5469 74.1874C49.897 74.5376 50.372 74.7343 50.8672 74.7343C51.3624 74.7343 51.8373 74.5376 52.1874 74.1874C52.5376 73.8373 52.7343 73.3624 52.7343 72.8672C52.7343 72.372 52.5376 71.897 52.1874 71.5469C51.8373 71.1967 51.3624 71 50.8672 71C50.372 71 49.897 71.1967 49.5469 71.5469C49.1967 71.897 49 72.372 49 72.8672Z" fill="#000F66"/>
<path d="M66.4268 72.8672C66.4268 73.3624 66.6235 73.8373 66.9737 74.1874C67.3239 74.5376 67.7988 74.7343 68.294 74.7343C68.7892 74.7343 69.2641 74.5376 69.6143 74.1874C69.9644 73.8373 70.1611 73.3624 70.1611 72.8672C70.1611 72.372 69.9644 71.897 69.6143 71.5469C69.2641 71.1967 68.7892 71 68.294 71C67.7988 71 67.3239 71.1967 66.9737 71.5469C66.6235 71.897 66.4268 72.372 66.4268 72.8672Z" fill="#000F66"/>
<path d="M50.5801 80.3109C55.5519 87.5106 63.6126 87.5106 68.5801 80.3109H50.5801Z" fill="#646CFF41" stroke="#000F66" stroke-width="1.4" stroke-linecap="round" stroke-linejoin="round"/>
<path d="M96 58.7493L83.6804 50H60L36.3196 50L24 58.7493L60 58.7493H96Z" fill="#646CFF41" stroke="#04153C" stroke-width="1.4" stroke-linejoin="round"/>
<path d="M36.5 52V57M83.5 52V57" stroke="#04153C" stroke-linecap="round"/>
<path d="M64.327 33.3639C64.0459 32.3148 64.6685 31.2364 65.7177 30.9553L77.9527 27.6769C79.0019 27.3958 80.0803 28.0184 80.3614 29.0675L83.6398 41.3026C83.9209 42.3517 83.2983 43.4301 82.2491 43.7113L70.0141 46.9896C68.9649 47.2708 67.8865 46.6481 67.6054 45.599L64.327 33.3639Z" fill="white" stroke="#04153C" stroke-width="1.4"/>
<path d="M48.9159 7.75698C49.197 6.70783 50.2754 6.08521 51.3246 6.36633L63.5596 9.64471C64.6088 9.92583 65.2314 11.0042 64.9503 12.0534L61.6719 24.2884C61.3908 25.3376 60.3124 25.9602 59.2632 25.6791L47.0282 22.4007C45.979 22.1196 45.3564 21.0412 45.6375 19.992L48.9159 7.75698Z" fill="white" stroke="#04153C" stroke-width="1.4"/>
<path d="M49.629 32.9396C50.5696 32.3965 51.7724 32.7188 52.3155 33.6594L58.6488 44.6291C59.1919 45.5697 58.8696 46.7725 57.929 47.3156L46.9593 53.6489C46.0187 54.192 44.8159 53.8697 44.2728 52.9291L37.9395 41.9594C37.3964 41.0188 37.7187 39.816 38.6593 39.2729L49.629 32.9396Z" fill="white" stroke="#04153C" stroke-width="1.4"/>
<rect x="74" y="76" width="30" height="30" rx="15" fill="#646CFF41"/>
<circle cx="89" cy="91" r="14.3" fill="white" stroke="#04153C" stroke-width="1.4"/>
<path fill-rule="evenodd" clip-rule="evenodd" d="M93.9648 93.2855L89.39 97.8603C89.3005 97.9497 89.1791 98 89.0526 98C88.926 98 88.8046 97.9497 88.7151 97.8603L84.1403 93.2855C84.0734 93.2187 84.0278 93.1336 84.0093 93.0409C83.9909 92.9482 84.0003 92.8521 84.0365 92.7648C84.0727 92.6775 84.134 92.6029 84.2126 92.5505C84.2913 92.4981 84.3837 92.4702 84.4782 92.4703H87.145L87.1278 84.3572C87.1276 84.2945 87.1398 84.2323 87.1637 84.1743C87.1876 84.1163 87.2227 84.0636 87.2671 84.0192C87.3114 83.9749 87.3641 83.9397 87.4222 83.9158C87.4802 83.8919 87.5423 83.8798 87.6051 83.88H90.4848C90.6113 83.88 90.7327 83.9303 90.8222 84.0198C90.9117 84.1093 90.962 84.2307 90.962 84.3572V92.4703H93.6269C93.7214 92.4702 93.8138 92.4981 93.8925 92.5505C93.9711 92.6029 94.0324 92.6775 94.0686 92.7648C94.1048 92.8521 94.1143 92.9482 94.0958 93.0409C94.0773 93.1336 94.0317 93.2187 93.9648 93.2855Z" fill="#04153C"/>
</g>
<defs>
<clipPath id="clip0_24031_75049">
<rect width="120" height="120" rx="60" fill="white"/>
</clipPath>
</defs>
</svg>
