<svg width="22" height="22" viewBox="0 0 22 22" fill="none" xmlns="http://www.w3.org/2000/svg">
<path fill-rule="evenodd" clip-rule="evenodd" d="M3.30013 2.93322C3.09763 2.93322 2.93346 3.09738 2.93346 3.29989V18.6999C2.93346 18.9024 3.09763 19.0666 3.30013 19.0666H18.7001C18.9026 19.0666 19.0668 18.9024 19.0668 18.6999V3.29989C19.0668 3.09738 18.9026 2.93322 18.7001 2.93322H14.3001V1.46655H18.7001C19.7127 1.46655 20.5335 2.28736 20.5335 3.29989V18.6999C20.5335 19.7124 19.7127 20.5332 18.7001 20.5332H3.30013C2.28761 20.5332 1.4668 19.7124 1.4668 18.6999V3.29989C1.4668 2.28736 2.28761 1.46655 3.30013 1.46655H7.33346V2.93322H3.30013ZM10.2669 1.46655V13.0795L6.9354 9.74801L5.89831 10.7851L11.0002 15.887L16.1021 10.7851L15.065 9.74801L11.7335 13.0795V1.46655H10.2669Z" fill="#000000"/>
</svg>
