<svg width="90" height="90" viewBox="0 0 90 90" fill="none" xmlns="http://www.w3.org/2000/svg">
<path d="M58.815 41.625L54.765 45.765C51.525 49.005 49.5 51.75 49.5 58.5H40.5V56.25C40.5 51.255 42.525 46.755 45.765 43.515L51.345 37.845C53.01 36.225 54 33.975 54 31.5C54 26.505 49.95 22.5 45 22.5C42.6131 22.5 40.3239 23.4482 38.636 25.136C36.9482 26.8239 36 29.1131 36 31.5H27C27 26.7261 28.8964 22.1477 32.2721 18.7721C35.6477 15.3964 40.2261 13.5 45 13.5C49.7739 13.5 54.3523 15.3964 57.7279 18.7721C61.1036 22.1477 63 26.7261 63 31.5C63 35.46 61.38 39.015 58.815 41.625ZM49.5 76.5H40.5V67.5H49.5M45 0C39.0905 0 33.2389 1.16396 27.7792 3.42542C22.3196 5.68688 17.3588 9.00156 13.1802 13.1802C4.74106 21.6193 0 33.0653 0 45C0 56.9347 4.74106 68.3807 13.1802 76.8198C17.3588 80.9984 22.3196 84.3131 27.7792 86.5746C33.2389 88.836 39.0905 90 45 90C56.9347 90 68.3807 85.2589 76.8198 76.8198C85.2589 68.3807 90 56.9347 90 45C90 20.115 69.75 0 45 0Z" fill="#A4B3C5"/>
</svg>
