<svg width="11" height="6" viewBox="0 0 11 6" fill="none" xmlns="http://www.w3.org/2000/svg">
<path d="M10.1758 0.800391L5.48826 5.48789C5.44473 5.53147 5.39303 5.56605 5.33612 5.58964C5.27922 5.61323 5.21822 5.62537 5.15662 5.62537C5.09502 5.62537 5.03402 5.61323 4.97712 5.58964C4.92021 5.56605 4.86851 5.53147 4.82498 5.48789L0.137479 0.800391C0.0718482 0.734834 0.0271447 0.651277 0.00902732 0.5603C-0.00909006 0.469323 0.000193354 0.375015 0.0357023 0.289317C0.0712113 0.203619 0.131349 0.130383 0.208503 0.0788812C0.285656 0.0273793 0.376356 -7.28566e-05 0.469119 1.45219e-07H9.84412C9.93688 -7.28566e-05 10.0276 0.0273793 10.1047 0.0788812C10.1819 0.130383 10.242 0.203619 10.2775 0.289317C10.313 0.375015 10.3223 0.469323 10.3042 0.5603C10.2861 0.651277 10.2414 0.734834 10.1758 0.800391Z" fill="#747bff"/>
</svg>
